<?xml version="1.0" encoding="utf-8" ?><svg xmlns="http://www.w3.org/2000/svg" xmlns:xlink="http://www.w3.org/1999/xlink" viewBox="0 0 1024 1024"><path fill="var(--color-primary)" d="M650.286 155.694C652.076 155.459 653.117 155.036 654.217 156.471C651.352 163.61 549.882 190.689 536.677 196.075C533.179 197.501 519.545 201.457 515.201 202.514C518.835 213.981 523.272 225.226 526.769 236.684C538.323 240.171 554.01 246.179 565.488 250.444C582.776 256.733 600.032 263.112 617.253 269.582L804.101 339.754L892.983 372.981C900.578 375.894 921.438 383.304 926.791 386.853C927.744 388.63 927.521 387.702 927.438 389.752C926.763 390.647 927.069 390.571 926.093 390.976C924.204 391.761 920.914 390.845 919.025 390.143C904.154 384.612 889.423 378.575 874.565 373.012L745.992 324.932C697.387 306.934 648.878 288.68 600.465 270.171C576.784 261.323 552.135 253.09 528.741 243.802C532.387 256.033 534.481 268.659 537.775 281.042C566.022 288.168 593.785 298.151 622.762 303.01C629.844 304.197 644.11 297.81 648.352 299.701L648.448 300.69C641.538 310.213 564.366 326.307 548.428 330.3C552.983 353.14 558.766 375.718 565.754 397.935C583.391 403.701 601.583 410.994 618.996 417.671L700.08 449.212C756.812 471.352 813.324 494.048 869.61 517.297L909.679 533.896C914.529 535.934 927.587 539.889 928.249 545C926.902 547.175 923.076 547.135 921.135 546.186C910.562 541.016 899.343 536.834 888.516 532.225C869.053 523.974 849.51 515.914 829.89 508.046L654.332 438.379C625.837 427.394 596.284 415.613 567.494 405.535C569.328 411.315 571.108 417.369 573.14 423.056C585.51 457.664 593.426 493.546 603.62 528.748C608.25 545.241 612.365 561.835 616.882 578.38C644.947 580.713 671.553 584.629 700.396 586.382C717.99 587.452 735.598 588.291 753.214 588.9C759.586 589.075 794.602 589.223 798.108 590.254C748.345 593.254 695.349 592.092 645.699 589.271C610.806 587.344 575.975 584.418 541.249 580.497C497.562 575.26 453.618 570.234 410.342 565.686C324.145 556.628 261.274 563.225 184.638 605.354C161.443 618.105 136.212 633.314 114.992 649.977C129.33 631.478 140.869 619.562 158.969 604.622C179.363 587.936 202.149 574.411 226.563 564.499C279.787 542.851 323.375 540.811 380.295 546.297C387.416 521.551 394.04 496.5 402.502 472.173C404.786 465.607 407.003 459.044 409.146 452.43C402.643 449.053 355.731 426.826 354.339 424.931C353.662 424.009 353.388 423.137 353.663 421.998C353.961 420.764 354.742 420.094 355.718 419.392C356.808 419.163 357.396 419.107 358.465 419.631L411.136 446.099C420.791 416.004 430.24 385.842 439.481 355.617C414.762 361.925 389.335 366.376 364.561 372.466C358.98 373.839 353.243 375.442 347.58 376.32C346.3 375.511 346.366 375.596 345.793 374.197C346.279 372.367 347.156 371.733 348.694 370.536C363.928 358.349 380.476 347.233 395.418 334.715C407.639 324.478 419.839 314.905 432.342 305.014C428.252 302.277 419.282 298.259 414.518 295.664C405.93 290.985 396.727 286.613 388.147 281.765C385.198 280.098 378.326 278.121 376.267 275.695C375.994 272.965 377.782 269.916 380.173 268.614C383.642 268.714 382.025 271.355 386.5 273.81C403.41 283.086 421.077 291.302 437.917 300.675C442.776 296.831 447.574 292.908 452.307 288.91C455.415 267.704 460.702 237.41 466.369 217.042L410.164 230.494C398.359 233.407 386.638 237.207 374.631 239.038C371.707 239.483 366.188 241.232 365.14 237.876C366.18 234.212 370.612 231.159 373.714 229.126C411.468 204.383 449.084 179.394 488.18 156.865C490.346 155.616 515.008 156.244 519.592 156.278C546.313 156.294 573.034 156.545 599.751 157.034C610.275 157.214 620.692 157.68 631.083 158.088C633.564 158.185 646.876 156.136 650.286 155.694Z"/><path fill="#FDFDF9" d="M436.168 457.379C436.503 457.502 464.863 483.654 469.192 487.333L467.838 498.41C457.333 504.611 446.36 511.666 435.938 518.123C434.32 519.276 431.991 520.668 430.269 521.773C423.214 510.82 412.883 497.194 405.109 486.315C405.408 485.087 406.252 481.453 406.903 480.639C413.3 472.641 427.702 463.43 436.168 457.379Z"/><path fill="#FDFDF9" d="M483.53 453.501C495.08 458.556 516.121 467.307 527.861 471.099C528.385 473.685 528.481 475.749 528.672 478.363C522.075 486.173 513.536 498.984 507.052 507.839C503.576 512.718 499.971 517.502 496.239 522.187C488.887 512.761 481.653 503.244 474.536 493.639C476.323 485.341 476.979 467.474 478.092 457.953C479.859 456.236 481.582 454.991 483.53 453.501Z"/><path fill="#FDFDF9" d="M530.279 486.379C530.982 487.85 532.37 498.545 532.763 500.989L542.845 567.837L531.343 566.303L524.233 557.276C518.975 549.601 506.919 534.934 500.667 527.36C510.628 513.765 520.499 500.104 530.279 486.379Z"/><path fill="#FDFDF9" d="M573.318 528.308C578.547 532.233 602.247 559.843 606.72 566.435C607.516 567.608 609.566 575.398 610.131 577.492C604.761 576.884 599.4 576.195 594.05 575.428C581.808 573.924 567.34 571.896 555.229 569.727C561.074 555.943 567.312 542.037 573.318 528.308Z"/><path fill="#FDFDF9" d="M526.604 415.186C531.82 416.766 572.18 437.742 572.211 441.044C569.5 444.607 562.088 449.954 558.253 452.882C552.596 457.216 546.861 461.447 541.052 465.575L532.996 463.926C531.902 457.634 525.68 419.058 526.604 415.186Z"/><path fill="#FDFDF9" d="M444.875 408.234C448.286 407.918 470.83 420.031 475.472 422.254C466.096 428.994 456.632 435.446 447.268 442.273L437.47 449.229C432.736 443.802 426.763 437.824 421.734 432.55C424.012 424.981 426.386 417.441 428.857 409.933L444.875 408.234Z"/><path fill="#FDFDF9" d="M486.895 396.873C488.44 397.239 499.664 402.872 501.994 403.95C507.618 406.551 512.381 408.329 518.214 410.474L519.398 416.849C513.595 422.611 504.785 429.355 498.235 434.603C492.6 438.807 484.677 446.221 478.527 449.208C480.388 432.871 481.941 416.5 483.186 400.105L486.895 396.873Z"/><path fill="#FDFDF9" d="M537.189 489.873C547.945 500.583 558.206 512.094 568.669 523.092C564.514 532.996 560.22 542.841 555.788 552.624C553.535 557.63 551.224 562.61 548.854 567.561C545.683 542.26 541.193 515.034 537.189 489.873Z"/><path fill="#FDFDF9" d="M543.022 472.375C546.641 472.453 580.272 485.856 585.819 488.116L573.813 512.336L571.513 517.181C559.305 504.488 547.374 491.53 535.731 478.317C538.034 476.121 540.502 474.317 543.022 472.375Z"/><path fill="#FDFDF9" d="M402.481 493.248C403.909 494.727 410.164 504.059 411.661 506.219C416.037 512.467 420.537 518.628 425.158 524.697C417.176 529.702 410.205 534.131 402.392 539.489C399.137 541.626 391.277 547.489 387.849 546.919C386.545 543.322 400.165 499.567 402.481 493.248Z"/><path fill="#FDFDF9" d="M466.48 506.48L466.792 506.772C467.577 510.133 462.764 548.412 462.327 555.255C459.012 554.878 455.603 554.366 452.29 553.909C450.459 550.954 448.465 547.955 446.573 545.026L434.076 526.764C444.629 519.932 455.789 513.165 466.48 506.48Z"/><path fill="#FDFDF9" d="M455.954 352.65C458.205 352.12 474.327 360.426 478.389 362.192C474.878 365.218 468.546 369.268 464.559 371.964C458.714 375.871 452.975 379.934 447.347 384.148C442.958 387.179 437.932 391.341 433.676 394.685C437.152 381.855 442.202 367.448 446.405 354.763C449.442 353.962 452.85 353.308 455.954 352.65Z"/><path fill="#FDFDF9" d="M473.616 431.44L474.229 431.706C472.481 447.514 471.443 463.564 469.816 479.451C465.052 475.484 460.393 471.392 455.844 467.181C451.045 462.889 446.639 458.41 442.087 453.861C452.42 446.141 462.932 438.665 473.616 431.44Z"/><path fill="#FDFDF9" d="M520.526 423.528C521.089 424.199 526.002 459.398 526.799 464.502C519.26 461.346 511.704 458.234 504.129 455.165C499.457 453.136 494.179 451.276 489.375 449.476C499.465 440.974 511.361 432.957 520.526 423.528Z"/><path fill="#FDFDF9" d="M494.931 284.595C493.489 290.479 459.168 321.45 452.793 326.512C452.292 323.425 457.013 297.934 457.702 292.543C469.897 292.413 483.513 288.675 494.931 284.595Z"/><path fill="#FDFDF9" d="M479.255 368.963L479.549 369.229C479.994 373.323 477.374 393.544 476.915 399.097C467.29 399.81 456.153 401.293 446.47 401.362C445.815 401.367 443.157 400.304 442.4 399.994C441.092 399.377 440.099 399.106 439.339 397.913C440.371 396.804 449.327 390.545 451.147 389.236L479.255 368.963Z"/><path fill="#FDFDF9" d="M496.615 532.421C504.158 541.494 515.355 555.602 521.96 565.193C516.506 564.318 511.057 563.407 505.615 562.46C496.421 560.914 487.202 559.524 477.96 558.293C482.257 551.212 491.331 538.917 496.615 532.421Z"/><path fill="#FDFDF9" d="M502.781 325.188C504.088 324.921 503.644 324.922 504.898 325.138C506.205 327.277 506.266 331.013 506.547 333.68C501.822 334.541 496.938 336.329 492.29 337.138C480.139 339.253 467.247 343.998 455.276 346.024L449.177 342.502C453.376 329.684 456.549 332.025 468.321 330.331L502.781 325.188Z"/><path fill="#FDFDF9" d="M473.319 503.22C475.228 504.793 489.569 523.483 492.232 526.864C487.71 533.892 482.152 540.907 477.196 547.758C475.655 550.113 472.204 556.459 469.522 556.882L468.729 556.203C468.709 553.538 468.959 550.893 469.227 548.245C470.742 533.259 471.493 518.172 473.319 503.22Z"/><path fill="#FDFDF9" d="M506.19 162.251C517.374 162.157 528.559 162.173 539.743 162.301C535.113 166.528 525.101 173.29 519.306 177.956L513.459 183.243L504.721 185.074L493.694 162.433C497.766 162.277 502.095 162.299 506.19 162.251Z"/><path fill="#FDFDF9" d="M497.762 249.435C498.851 251.095 500.547 273.075 500.884 276.721C489.385 280.614 479.856 283.373 467.998 285.645C466.5 285.866 465.924 286.068 464.453 285.64C466.818 282.276 472.652 276.304 475.609 273.103C482.913 265.139 490.298 257.249 497.762 249.435Z"/><path fill="#FDFDF9" d="M588.573 496.287C589.65 498.908 592.285 509.938 593.185 513.339L603.375 551.752L596.824 544.551C591.759 538.995 580.122 527.336 576.509 521.557C580.587 513.404 584.177 504.157 588.573 496.287Z"/><path fill="#FDFDF9" d="M544.832 399.359C547.914 399.554 557.278 402.297 560.693 403.227C563.321 412.715 566.245 421.192 569.425 430.492C566.986 428.986 563.818 427.38 561.25 426.002C551.414 420.95 542.049 416.13 532.426 410.667C536.523 407.282 540.901 403.017 544.832 399.359Z"/><path fill="#FDFDF9" d="M574.329 447.879C576.328 448.65 583.206 476.989 584.344 481.21C578.328 478.645 572.248 476.232 566.11 473.974C560.355 471.918 554.62 469.806 548.905 467.639C557.514 461.228 565.991 454.639 574.329 447.879Z"/><path fill="#FDFDF9" d="M517.295 364.92C525.5 368.234 544.447 378.693 553.002 383.217L548.266 387.373C546.316 389.059 544.276 391.097 542.395 392.894C534.41 390.346 528.918 389.562 520.712 388.917C520.112 381.088 518.578 372.723 517.295 364.92Z"/><path fill="#FDFDF9" d="M488.674 302.072C493.554 302.374 498.431 302.724 503.304 303.122C503.737 308.31 504.289 313.488 504.958 318.652C496.2 320.149 487.42 321.506 478.619 322.721C473.812 323.583 469.181 324.199 464.35 324.845C470.759 318.959 482.843 306.533 488.674 302.072Z"/><path fill="#FDFDF9" d="M428.732 530.014C430.311 531.731 442.074 549.693 444.093 552.695C437.158 552.308 427.157 550.733 419.88 549.906C413.74 549.056 406.75 548.567 400.437 547.819C408.812 542.057 419.976 535.109 428.732 530.014Z"/><path fill="#FDFDF9" d="M438.923 193.568C445.276 195.457 451.564 198.141 457.728 200.615C444.734 206.435 422.708 213.702 408.899 218.537C403.461 220.439 398.048 222.409 392.661 224.448C407.501 214.079 424.914 204.136 438.923 193.568Z"/><path fill="#FDFDF9" d="M449.956 298.965L450.196 299.191C450.391 299.749 446.175 327.358 445.752 331.041L440.887 332.819C437.075 330.554 433.186 328.558 429.261 326.501L420.991 322.357C429.484 315 440.99 306.133 449.956 298.965Z"/><path fill="#FDFDF9" d="M549.729 162.213C559.344 162.288 568.959 162.411 578.573 162.584C584.592 162.677 592.252 162.582 598.067 163.226C587.054 165.746 576.062 168.358 565.093 171.062C551.677 174.397 538.222 177.573 524.73 180.589C532.907 175.402 542.499 168.546 549.729 162.213Z"/><path fill="#FDFDF9" d="M507.744 279.801C515.308 280.224 519.752 286.303 524.438 291.685C530.05 298.131 536.259 303.745 538.402 312.125C535.682 312.163 513.901 302.825 509.666 301.182C508.849 295.746 507.208 284.925 507.744 279.801Z"/><path fill="#FDFDF9" d="M481.486 168.072C482.339 169.974 473.766 191.625 472.357 194.866L464.617 198.039C460.298 195.076 458.064 193.812 453.214 191.962L446.105 189.248C455.632 183.005 471.479 173.78 481.486 168.072Z"/><path fill="#FDFDF9" d="M415.406 326.469C421.6 329.27 427.679 332.32 433.627 335.611C422.124 339.116 405.646 345.748 393.923 349.991C389.223 351.744 384.495 353.425 379.743 355.032C385.029 350.068 393.258 344.514 399.133 339.847C404.689 335.433 409.917 330.84 415.406 326.469Z"/><path fill="#FDFDF9" d="M509.116 360.607C509.822 360.495 509.825 360.606 510.591 360.79C511.552 362.742 511.496 364.923 511.667 367.147C503.609 374.886 494.244 382.656 485.779 390.105C484.77 391.024 485.33 390.866 484.19 390.96C484.105 385.477 485.462 372.522 485.801 366.168C493.434 364.526 501.47 362.425 509.116 360.607Z"/><path fill="#FDFDF9" d="M545.481 350.538C545.553 350.558 545.639 350.553 545.698 350.6C546.83 351.499 552.74 372.989 553.809 376.498C547.934 373.589 542.016 370.501 536.165 367.522C530.486 364.707 522.866 360.733 516.875 359.298C526.557 357.083 536.074 353.73 545.481 350.538Z"/><path fill="#FDFDF9" d="M522.145 242.398C525.505 252.796 528.702 268.464 531.369 279.431C528.308 278.62 525.256 277.777 522.213 276.904C518.198 275.586 514.16 274.343 510.099 273.176C514.234 263.276 518.903 252.542 522.145 242.398Z"/><path fill="#FDFDF9" d="M615.787 165.174L617.278 165.19C615.106 166.289 610.204 167.489 607.63 168.262C600.703 170.366 593.758 172.408 586.794 174.386C560.074 182.147 539.223 189.807 511.662 194.289C510.615 193.305 510.218 193.122 509.733 191.78L510.101 191.048C513.087 189.639 517.24 188.595 520.478 187.936C552.481 181.426 583.826 171.843 615.787 165.174Z"/><path fill="#FDFDF9" d="M512.432 375.004C513.875 378.152 516.504 399.264 517.296 403.979L503.788 397.949C499.797 396.176 495.766 394.496 491.698 392.909C498.141 387.121 505.634 380.245 512.432 375.004Z"/><path fill="#FDFDF9" d="M505.836 340.062L506.937 340.065C508.355 341.65 509.428 351.702 509.814 354.38C503.22 355.846 496.653 357.435 490.117 359.145C488.832 359.523 488.303 359.874 487.09 359.419C485.682 356.648 487.393 348.183 487.8 344.487L505.836 340.062Z"/><path fill="#FDFDF9" d="M465.351 248.771L483.822 254.735C479.109 260.555 474.098 266.126 468.808 271.427C465.424 274.947 462.774 277.957 459.621 281.665C461.626 270.717 463.536 259.752 465.351 248.771Z"/><path fill="#FDFDF9" d="M433.94 342.041C435.262 343.757 439.501 346.375 441.74 348.308L441.269 349.097C438.605 350.196 436.289 350.626 433.488 351.251C416.991 354.932 400.249 357.985 383.866 362.124L375.471 363.903C380.052 361.545 390.739 357.871 395.88 355.97C408.543 351.262 421.229 346.619 433.94 342.041Z"/><path fill="#FDFDF9" d="M525.606 335.601C528.209 335.174 538.909 343.484 541.631 345.499C536.709 347.36 532.301 348.635 527.271 350.106L515.987 353.034L513.744 338.336L525.606 335.601Z"/><path fill="#FDFDF9" d="M569.845 296.918C571.404 297.027 579.072 299.225 581.205 299.782C587.24 301.377 593.318 302.801 599.434 304.052L577.808 307.173C568.867 308.421 559.938 309.757 551.023 311.179C556.884 306.311 563.605 302.091 569.845 296.918Z"/><path fill="#FDFDF9" d="M502.491 193.995C503.115 193.92 502.687 193.936 503.76 194.209C505.228 196.484 506.02 199.365 506.907 201.97C497.196 205.776 489.9 207.359 479.879 209.32C477.839 209.693 476.856 210.303 475.306 208.9C474.612 206.839 475.993 203.814 476.779 201.672C484.24 200.437 495.359 196.742 502.491 193.995Z"/><path fill="#FDFDF9" d="M495.101 233.05C496.193 232.845 495.647 232.778 496.722 233.361C497.505 236.163 497.449 239.134 497.568 242.07C494.59 244.348 491.343 247.422 488.51 249.976C484.965 249.097 481.359 247.837 477.879 246.689C474.938 245.677 472.07 244.518 469.176 243.378C477.442 238.551 486.003 235.735 495.101 233.05Z"/><path fill="#FDFDF9" d="M508.859 207.481C508.955 207.492 509.058 207.478 509.147 207.515C511.733 208.597 518.345 228.777 519.575 232.161L514.321 229.508C509.882 227.29 507.14 225.881 502.207 225.267C501.578 220.561 501.104 216.05 500.407 211.293L508.859 207.481Z"/><path fill="#FDFDF9" d="M419.143 439.525C421.591 441.285 429.68 449.993 432.121 452.532C427.9 455.809 423.22 459.054 418.862 462.189L410.977 468.408C412.839 459.723 416.532 448.112 419.143 439.525Z"/><path fill="#FDFDF9" d="M502.568 232.985C506.162 234.158 513.634 237.698 517.629 239.283C514.827 245.693 512.114 252.141 509.491 258.626L506.245 266.542C504.316 257.161 503.643 242.939 502.568 232.985Z"/><path fill="#FDFDF9" d="M539.144 287.828C547.078 289.808 555.025 292.391 563.084 294.445C560.281 296.662 557.216 298.905 554.354 301.077C550.954 303.746 547.755 306.219 544.245 308.738C542.186 301.753 540.728 294.932 539.144 287.828Z"/><path fill="#FDFDF9" d="M537.848 319.185C538.216 319.096 538.676 319.224 539.106 319.286C540.266 321.015 540.724 323.434 541.283 325.504C533.001 327.11 522.969 329.864 514.647 331.912L513.069 331.94C511.698 329.993 511.651 326.238 511.389 323.692C520.422 322.488 528.899 320.517 537.848 319.185Z"/><path fill="#FDFDF9" d="M545.567 318.73C548.414 318.002 552.076 317.355 555.015 316.952C570.889 314.777 586.771 311.931 602.623 309.74L603.879 310.733C597.078 312.579 589.252 313.963 582.298 315.714C570.6 318.661 558.849 321.492 547.094 324.201L545.567 318.73Z"/><path fill="#FDFDF9" d="M489.061 166.866C491.946 173.427 495.436 180.247 498.492 186.831C494.541 187.742 491.374 188.731 487.497 189.964L480.5 192.245C483.282 183.768 486.289 175.369 489.061 166.866Z"/><path fill="#FDFDF9" d="M421.275 220.754C438.465 215.122 453.613 209.972 470.394 203.047L468.326 210.675C456.494 213.1 444.707 215.746 432.974 218.611C430.913 219.119 423.299 220.938 421.669 221.723L421.275 220.754Z"/><path fill="#FDFDF9" d="M480.843 215.295C482.51 215.095 483.566 214.851 485.226 215.186C481.818 221.474 475.537 229.238 470.758 234.491C469.491 235.687 469.909 235.737 468.622 235.978C468.433 234.323 471.741 218.975 472.323 216.092C475.159 215.787 477.999 215.521 480.843 215.295Z"/><path fill="#FDFDF9" d="M521.932 394.872C527.297 395.444 532.633 396.268 537.922 397.34C536.216 399.085 533.976 401.029 532.147 402.705C530.021 404.907 527.142 409.036 524.065 406.712C522.832 403.949 522.381 398.167 521.932 394.872Z"/><path fill="#FDFDF9" d="M470.08 405.75C471.985 405.538 474.589 405.459 476.558 405.336C476.504 408.689 476.209 412.39 476.007 415.768L469.24 412.499C465.176 410.556 461.698 408.826 457.762 406.648C461.912 406.528 465.952 406.124 470.08 405.75Z"/><path fill="#FDFDF9" d="M493.948 214.889C495.26 216.188 495.956 224.121 496.212 226.227C492.145 227.361 487.679 228.846 483.606 230.1L482.502 230.239C482.681 227.865 491.814 216.945 493.948 214.889Z"/><path fill="#FDFDF9" d="M480.989 346.116L481.518 346.568C481.687 349.531 481.03 353.616 480.649 356.663L472.372 352.833C470.29 351.999 468.052 350.884 466.005 349.92C470.916 348.518 476.019 347.334 480.989 346.116Z"/><path fill="#FDFDF9" d="M509.989 308.346C512.813 309.273 524.523 312.726 525.901 314.423L524.402 314.939L511.176 317.356C510.724 314.36 510.328 311.356 509.989 308.346Z"/><path fill="#FDFDF9" d="M501.353 286.929C502.251 290.107 502.481 294.305 502.708 297.605C500.794 297.2 498.571 296.876 496.618 296.54C495.247 296.479 495.807 296.743 494.785 296.045C495.277 293.69 499.652 288.953 501.353 286.929Z"/><path fill="#FDFDF9" d="M556.362 388.054C557.929 389.746 558.899 393.544 557.963 395.817C556.111 396.52 555.984 396.05 553.606 395.473L551.225 394.789L550.898 393.883C551.732 391.815 554.575 389.663 556.362 388.054Z"/><path fill="#FDFDF9" d="M541.691 331.6L542.416 331.831C543.397 333.862 544.119 338.132 544.621 340.538L540.496 337.383L534.743 333.215L541.691 331.6Z"/><path fill="#FDFDF9" d="M525.699 283.767C527.419 284.068 530.95 285.289 532.751 285.856C533.482 288.916 533.958 291.448 534.487 294.549C531.376 290.895 528.603 287.611 525.699 283.767Z"/><path fill="#555E86" d="M421.669 221.723C417.923 222.764 415.167 223.591 411.329 224.108C413.397 222.944 418.929 221.221 421.275 220.754L421.669 221.723Z"/><path fill="#D2D4E8" d="M602.623 309.74C606.717 308.756 610.61 308.12 614.751 307.417C610.701 308.868 608.045 309.692 603.879 310.733L602.623 309.74Z"/><path fill="var(--color-primary)" d="M869.83 769.487C870.059 769.686 870.119 770.019 870.243 770.296C868.044 773.515 862.329 778.837 859.38 781.549C807.025 829.694 735.655 853.355 665.184 854.234C627.675 854.702 584.716 849.179 547.136 843.772L424.799 825.315C357.162 815.593 289.067 809.385 220.787 806.715C215.841 806.369 208.885 806.431 203.787 806.326L203.553 806.105C209.796 805.38 217.83 805.192 224.198 804.929C239.539 804.367 254.888 804.067 270.239 804.031C316.082 803.674 361.916 805.455 407.593 809.369C433.567 811.761 459.505 814.536 485.397 817.693L575.678 828.529C638.694 835.764 692.251 839.889 754.717 822.161C782.481 814.281 808.14 802.738 833.636 789.29C845.876 782.835 857.383 775.795 869.83 769.487Z"/><path fill="var(--color-accent)" d="M346.263 582.709C355.402 581.793 372.685 582.931 382.02 583.347C419.747 585.03 457.392 589.766 495.107 592.795C569.119 598.714 643.312 602.098 717.555 602.939C732.43 603.066 874.321 603.334 876.496 604.183C877.913 604.736 878.84 605.765 879.277 607.214C879.679 608.547 879.309 609.351 878.757 610.546C874.596 613.969 863.905 612.571 858.371 612.563L822.331 612.541C780.344 612.614 738.358 612.355 696.375 611.763C634.215 611.279 572.073 609.358 510.002 606.001C488.072 604.881 466.153 603.548 444.249 602.002C343.504 594.757 288.461 592.292 192.365 631.419C201.487 623.645 215.24 616.795 225.848 611.383C265.944 590.923 301.771 585.045 346.263 582.709Z"/><path fill="var(--color-accent)" d="M795.248 781.99L796.288 782.278L796.362 783.022C792.214 787.715 777.878 792.875 771.774 795.284C711.362 819.128 647.799 813.355 584.697 808.399L511.479 802.647C489.235 800.748 467.048 798.327 444.747 797.177C411.298 795.452 377.784 794.388 344.303 793.72C302.339 792.613 260.359 792.243 218.382 792.613L136.375 793.424C132.271 793.201 128.224 791.887 129.845 787.039C131.292 782.712 143.974 784.047 147.605 784.041L176.481 784.011C265.159 783.159 353.845 783.98 442.492 786.472C468.679 787.359 500.208 788.722 526.195 790.823L595.335 796.132C650.622 800.235 706.952 803.383 761.4 790.833C772.825 788.199 784.115 785.724 795.248 781.99Z"/><path fill="var(--color-primary)" d="M376.473 635.981C394.316 633.614 410.682 646.205 412.969 664.058C415.256 681.911 402.592 698.221 384.729 700.428C366.978 702.621 350.794 690.054 348.522 672.314C346.249 654.573 358.743 638.333 376.473 635.981Z"/><path fill="#FDFDF9" d="M376.64 648.737C387.242 646.529 397.628 653.326 399.849 663.925C402.069 674.524 395.285 684.918 384.689 687.152C374.075 689.389 363.659 682.591 361.434 671.974C359.21 661.357 366.021 650.949 376.64 648.737Z"/><path fill="var(--color-primary)" d="M627.448 353.179C632.604 354.17 642.329 360.364 647.507 362.873L705.822 390.985L880.122 475.424C889.947 480.336 899.811 485.168 909.715 489.919C912.523 491.273 925.301 496.809 926.59 499.006C926.983 500.83 926.525 501.533 925.88 503.29C921.807 503.862 911.356 497.996 907.242 496.015L864.278 475.077L759.812 424.289C721.915 406.318 684.161 388.046 646.554 369.475C643.058 367.731 628.306 360.696 626.695 358.494C626.36 356.432 626.891 355.262 627.448 353.179Z"/><path fill="var(--color-primary)" d="M630.34 212.774C634.714 213.223 650.962 221.561 656.24 224.055C675.735 233.271 695.183 242.588 714.583 252.003L855.226 319.826C876.748 330.043 898.18 340.448 919.52 351.039C921.754 352.167 924.784 353.437 925.897 355.641C925.977 357.391 925.289 357.994 924.262 359.447C920.578 359.553 901.549 349.539 897.263 347.467C879.521 338.985 861.824 330.41 844.173 321.743L681.861 243.572C671.062 238.378 660.231 233.251 649.368 228.19C643.328 225.422 637.15 222.889 631.276 219.802C628.03 218.097 629.065 215.355 630.34 212.774Z"/><path fill="var(--color-primary)" d="M658.021 634.26C658.836 634.318 660.464 634.376 661.071 634.864C665.964 638.799 671.477 644.835 675.737 649.283C683.15 657.14 690.67 664.894 698.296 672.543C698.055 660.866 698.35 648.293 698.425 636.559L711.245 636.972L711.424 683.769C711.431 687.09 711.699 700.53 711.323 702.702L710.504 702.639C699.498 692.448 689.126 681.198 678.581 670.513C676.278 668.18 673.996 665.65 671.949 663.093L671.757 702.008L658.057 702.083C658.575 679.882 657.776 656.636 658.021 634.26Z"/><path fill="var(--color-primary)" d="M570.599 635.217C572.06 636.48 581.489 661.932 583.791 666.808C587.398 660.475 594.095 643.411 597.148 636.141L611.228 636.328C601.198 658.116 592.884 678.786 583.331 700.259C578.549 687.447 576.944 680.479 571.076 667.231C568.147 676.592 561.727 691.448 557.973 701.455C552.55 681.661 539.833 655.319 531.724 636.037L545.997 635.911C550.41 646.018 554.64 656.203 558.686 666.462C563.612 655.723 566.246 645.67 570.599 635.217Z"/><path fill="var(--color-primary)" d="M417.991 634.966C421.189 637.149 427.905 644.022 430.995 646.945C440.033 655.496 448.795 664.49 458.068 672.799L457.809 636.123L470.526 636.24C470.661 657.942 470.678 679.645 470.58 701.348C466.357 700.828 436.448 669.679 430.369 664.336L430.439 700.024L417.635 699.895C417.714 679.35 417.209 655.151 417.991 634.966Z"/><path fill="var(--color-primary)" d="M744.72 636.137C754.477 635.196 762.625 638.035 769.678 644.785C766.682 648.056 764.67 650.736 761.997 654.309C740.425 636.293 719.253 665.659 735.228 684.261C739.771 689.551 751.918 692.831 757.722 688.141C760.107 686.214 759.567 682.621 759.495 679.895L747.059 679.951C747.029 675.611 747.222 672.019 747.505 667.677L754.992 667.63L771.75 667.54C771.779 675.576 772.012 686.526 771.439 694.348C761.011 704.809 741.949 705.435 730.153 696.967C715.319 686.317 711.956 663.909 722.815 649.267C728.502 641.598 735.38 637.628 744.72 636.137Z"/><path fill="var(--color-primary)" d="M293.103 635.915L306.116 635.766L306.165 662.176L329.988 662.124L329.904 635.844L342.6 635.972C342.652 643.948 343.466 698.488 341.856 700.922L329.754 700.812L329.765 674.266L306.381 674.398C306.342 683.331 306.257 692.263 306.127 701.194L293.294 701.213C292.798 679.847 293.116 657.351 293.103 635.915Z"/><path fill="var(--color-primary)" d="M504.956 635.65C514.854 634.524 520.522 636.829 528.683 641.998C526.244 645.487 523.85 649.007 521.502 652.558C510.958 646.935 500.466 646.046 492.816 657.138C489.763 661.486 488.7 666.926 489.893 672.103C491.077 677.334 494.343 681.857 498.937 684.626C506.226 688.982 512.484 687.551 519.967 685.561C519.609 682.977 519.368 680.012 519.099 677.387L511.992 677.527L511.984 667.032L520.959 667.024L531.61 666.985C531.664 675.605 531.643 684.224 531.546 692.843C527.735 696.455 522.228 698.88 517.119 699.963C508.117 701.803 498.753 699.996 491.082 694.937C483.766 690.031 478.686 682.431 476.95 673.795C475.271 665.747 476.89 657.362 481.443 650.518C487.179 641.847 495.018 637.608 504.956 635.65Z"/><path fill="var(--color-primary)" d="M625.688 633.729C627.651 635.391 653.269 694.718 656.598 701.999L641.85 701.959L635.882 688.51L627.707 688.195C623.841 688.054 619.816 688.151 615.933 688.188C613.937 692.378 612.129 697.148 610.382 701.485L596.652 701.382C600.411 690.723 605.579 679.893 610.145 669.524L625.688 633.729Z"/><path fill="#FDFDF9" d="M625.737 663.878C627.049 665.353 630.764 674.815 631.355 677.052C630.496 677.747 628.28 677.512 626.896 677.535L619.839 677.528C621.748 672.954 623.715 668.404 625.737 663.878Z"/><path fill="var(--color-primary)" d="M241.411 635.514C255.956 635.464 270.501 635.513 285.046 635.658C280.426 646.815 273.684 658.972 268.414 669.966C265.405 676.245 261.967 681.89 259.475 688.523C268.152 688.427 276.831 688.387 285.509 688.402C285.624 692.669 285.551 697.161 285.55 701.447L239.32 701.418C242.79 693.188 247.699 683.93 251.693 675.756C256.019 666.902 260.678 656.952 265.61 648.543C257.525 648.442 249.44 648.409 241.355 648.444L241.411 635.514Z"/><path fill="var(--color-primary)" d="M612.38 717.573C619.969 717.461 631.964 716.225 638.073 721.129C647.197 728.453 646.65 741.919 639.635 750.507C630.746 757.978 623.158 756.204 612.024 756.101C612.132 744.263 611.679 729.124 612.38 717.573Z"/><path fill="#FDFDF9" d="M619.632 724.583C624.582 724.544 629.972 724.536 634.132 727.562C640.835 732.436 639.518 739.502 634.874 745.216C629.642 749.011 626.071 748.586 619.812 748.581L619.632 724.583Z"/><path fill="var(--color-primary)" d="M453.506 718.117L462.234 718.176C462.067 726.206 462.307 734.216 462.335 742.234C462.346 745.487 462.676 751.783 462.156 754.776C460.571 755.638 458.73 755.392 456.875 755.364L455.019 755.176C451.891 752.915 439.942 737.463 436.698 733.408C436.732 740.66 436.608 748.051 436.562 755.316L427.979 755.062C428.008 746.992 427.355 725.761 428.214 719.05C429.621 718.152 431.529 718.289 433.27 718.216L434.993 718.225C437.576 719.354 450.247 736.273 453.383 739.87C453.578 732.806 453.474 725.223 453.506 718.117Z"/><path fill="var(--color-primary)" d="M374.341 718.065C377.198 718.035 379.872 718.24 382.716 718.421C382.843 723.148 381.54 743.781 384.576 746.031C401.359 758.468 397.636 726.527 397.716 718.271L406.365 718.293L406.254 725.855C406.253 733.156 407.971 745.575 403.228 751.395C397.588 757.944 384.296 758.078 378.283 752.18C373.234 747.226 374.275 737.614 374.216 731.098C374.178 726.88 374.294 722.35 374.341 718.065Z"/><path fill="var(--color-primary)" d="M565.015 717.451L591.034 717.517L590.971 724.996L572.587 724.899L572.564 733.22C577.947 733.181 583.329 733.238 588.709 733.391L588.855 740.551L572.685 740.525C572.445 742.242 572.543 746.717 572.541 748.668L590.896 748.569L590.831 755.866C582.102 755.924 573.374 756.032 564.646 756.193C564.902 743.28 565.025 730.366 565.015 717.451Z"/><path fill="var(--color-primary)" d="M633.384 169.628C635.364 169.38 637.857 169.39 639.895 169.33C640.077 181.964 639.995 194.838 640.04 207.491L633.223 207.467L625.329 207.43L625.282 171.702C627.994 170.833 630.616 170.27 633.384 169.628Z"/><path fill="var(--color-primary)" d="M633.767 311.528C634.189 311.488 634.861 311.649 635.32 311.727C636.773 314.935 635.77 342.755 635.612 347.53L624.376 347.091C622.243 347.074 622.974 347.494 621.717 346.421C621.145 339.405 621.622 322.705 621.901 315.33C625.583 313.803 629.905 312.658 633.767 311.528Z"/><path fill="var(--color-primary)" d="M514.224 717.542L543.991 717.604L544.012 724.888L532.918 724.984L532.894 745.831L532.926 756.031L524.966 756.09L524.916 724.994C521.384 725.055 517.743 725.219 514.202 725.333L514.224 717.542Z"/><path fill="var(--color-primary)" d="M348.467 379.454L361.473 379.344L361.536 411.696C357.34 411.867 352.691 411.592 348.46 411.435L348.467 379.454Z"/><path fill="var(--color-primary)" d="M484.471 718.205L493.499 718.098C493.536 726.641 494.164 747.761 493.376 755.264C490.396 755.423 487.45 755.262 484.468 755.156C484.236 743.624 484.027 729.659 484.471 718.205Z"/><path fill="var(--color-primary)" d="M373.184 243.561C377.837 243.351 381.855 243.42 386.495 243.516L386.524 261.734C381.764 261.674 377.613 261.465 372.867 261.147L373.184 243.561Z"/></svg>